<svg xmlns="http://www.w3.org/2000/svg" viewBox="0 0 800 600" xml:space="preserve"><path fill="#E8E8E8" d="m587.191 390.427 1.215 3.921c.184.595.65 1.061 1.245 1.245l3.921 1.215c.35.108.35.604 0 .713l-3.921 1.215a1.887 1.887 0 0 0-1.245 1.245l-1.215 3.921c-.108.35-.604.35-.713 0l-1.215-3.921a1.887 1.887 0 0 0-1.245-1.245l-3.921-1.215c-.35-.108-.35-.604 0-.713l3.921-1.215a1.887 1.887 0 0 0 1.245-1.245l1.215-3.921c.109-.351.605-.351.713 0z"/><linearGradient id="a" gradientUnits="userSpaceOnUse" x1="148" y1="502" x2="620" y2="502"><stop offset="0" style="stop-color:#ededed"/><stop offset="1" style="stop-color:#ddd"/></linearGradient><path fill="url(#a)" d="M148 498h472v8H148z"/><linearGradient id="b" gradientUnits="userSpaceOnUse" x1="637.6" y1="114.4" x2="444.115" y2="307.885"><stop offset="0" style="stop-color:#76e5ff"/><stop offset=".023" style="stop-color:#83e7ff"/><stop offset=".092" style="stop-color:#a4eeff"/><stop offset=".168" style="stop-color:#c1f3ff"/><stop offset=".253" style="stop-color:#d8f8ff"/><stop offset=".351" style="stop-color:#e9fbff"/><stop offset=".469" style="stop-color:#f6fdff"/><stop offset=".627" style="stop-color:#fdffff"/><stop offset="1" style="stop-color:#fff"/></linearGradient><circle fill="url(#b)" cx="544" cy="208" r="108"/><linearGradient id="c" gradientUnits="userSpaceOnUse" x1="427" y1="329.75" x2="427" y2="399.529"><stop offset="0" style="stop-color:#ffb024"/><stop offset=".281" style="stop-color:#fda726"/><stop offset=".739" style="stop-color:#f88f2b"/><stop offset="1" style="stop-color:#f47e2f"/></linearGradient><path fill="url(#c)" d="M416 398h22v-68h-10c-6.627 0-12 5.372-12 12v56z"/><path fill="#89512B" d="M580 296h12v4h-12z"/><linearGradient id="d" gradientUnits="userSpaceOnUse" x1="586" y1="305.75" x2="586" y2="333.291"><stop offset="0" style="stop-color:#965b32"/><stop offset="1" style="stop-color:#89512b"/></linearGradient><path fill="url(#d)" d="M580 306h12v22c0 2.2-1.8 4-4 4h-4c-2.2 0-4-1.8-4-4v-22z"/><linearGradient id="e" gradientUnits="userSpaceOnUse" x1="568" y1="298" x2="604" y2="298"><stop offset="0" style="stop-color:#c4875f"/><stop offset="1" style="stop-color:#c47a51"/></linearGradient><path fill="url(#e)" d="M604 298a2 2 0 0 1-2 2h-32a2 2 0 1 1 0-4h32a2 2 0 0 1 2 2z"/><linearGradient id="f" gradientUnits="userSpaceOnUse" x1="590" y1="306.25" x2="590" y2="312.126"><stop offset="0" style="stop-color:#ffddca"/><stop offset="1" style="stop-color:#ffd3c0"/></linearGradient><path fill="url(#f)" d="M596 309a3 3 0 0 1-3 3h-6a3 3 0 1 1 0-6h6a3 3 0 0 1 3 3z"/><linearGradient id="g" gradientUnits="userSpaceOnUse" x1="591" y1="311.5" x2="591" y2="318.385"><stop offset="0" style="stop-color:#ffddca"/><stop offset="1" style="stop-color:#ffd3c0"/></linearGradient><path fill="url(#g)" d="M598 315a3 3 0 0 1-3 3h-8a3 3 0 1 1 0-6h8a3 3 0 0 1 3 3z"/><linearGradient id="h" gradientUnits="userSpaceOnUse" x1="591" y1="312.063" x2="591" y2="305.822"><stop offset="0" style="stop-color:#610000;stop-opacity:.05"/><stop offset=".145" style="stop-color:#640807;stop-opacity:.0428"/><stop offset=".674" style="stop-color:#6c201e;stop-opacity:.0163"/><stop offset="1" style="stop-color:#6f2926;stop-opacity:0"/></linearGradient><path fill="url(#h)" d="M598 309a3 3 0 0 1-3 3h-8a3 3 0 1 1 0-6h8a3 3 0 0 1 3 3z"/><linearGradient id="i" gradientUnits="userSpaceOnUse" x1="591" y1="318.083" x2="591" y2="311.968"><stop offset="0" style="stop-color:#610000;stop-opacity:.05"/><stop offset=".145" style="stop-color:#640807;stop-opacity:.0428"/><stop offset=".674" style="stop-color:#6c201e;stop-opacity:.0163"/><stop offset="1" style="stop-color:#6f2926;stop-opacity:0"/></linearGradient><path fill="url(#i)" d="M598 315a3 3 0 0 1-3 3h-8a3 3 0 1 1 0-6h8a3 3 0 0 1 3 3z"/><linearGradient id="j" gradientUnits="userSpaceOnUse" x1="562" y1="313" x2="598" y2="313"><stop offset="0" style="stop-color:#ffddca"/><stop offset="1" style="stop-color:#ffc4b0"/></linearGradient><path fill="url(#j)" d="M598 304v6c0 1.66-1.34 3-3 3s-3-1.34-3-3v-4h-9.979a2.02 2.02 0 0 0-2.021 2.021V324h-5.151c-.543 0-1.064.216-1.448.6L572 326l-10-10 12.22-13.98a5.992 5.992 0 0 1 4.48-2.02H594c2.2 0 4 1.8 4 4z"/><linearGradient id="k" gradientUnits="userSpaceOnUse" x1="593.103" y1="204.666" x2="593.103" y2="295.649"><stop offset="0" style="stop-color:#e5e5e5"/><stop offset=".499" style="stop-color:#dcdcdc"/><stop offset="1" style="stop-color:#cecece"/></linearGradient><path fill="url(#k)" d="m595.076 216.96-11.567-13.013c-1.227-1.38-3.509-.512-3.509 1.334V296h12l11.944-35.833a44.062 44.062 0 0 0-8.868-43.207z"/><linearGradient id="l" gradientUnits="userSpaceOnUse" x1="593.096" y1="252.5" x2="593.096" y2="202.747"><stop offset="0" style="stop-color:#ffffed;stop-opacity:0"/><stop offset="1" style="stop-color:#fff;stop-opacity:.25"/></linearGradient><path fill="url(#l)" d="M605.78 252.18c-1.16-8.48-4.8-16.6-10.7-23.22L580 212v-6.72c0-1.84 2.28-2.72 3.5-1.34l11.58 13.02c8.62 9.72 12.44 22.62 10.7 35.22z"/><linearGradient id="m" gradientUnits="userSpaceOnUse" x1="542.182" y1="314.75" x2="542.182" y2="348.171"><stop offset="0" style="stop-color:#ffb024"/><stop offset=".281" style="stop-color:#fda726"/><stop offset=".739" style="stop-color:#f88f2b"/><stop offset="1" style="stop-color:#f47e2f"/></linearGradient><path fill="url(#m)" d="M546.77 348H512v-18h30.599a4.038 4.038 0 0 0 2.855-1.183l14.183-14.182 12.727 12.728-17.129 17.13A11.968 11.968 0 0 1 546.77 348z"/><path fill="#FF9022" d="m569.443 331.685-14.129-14.129a2.03 2.03 0 0 1 0-2.871l1.371-1.371a2.03 2.03 0 0 1 2.871 0l14.129 14.129a2.03 2.03 0 0 1 0 2.871l-1.371 1.371a2.03 2.03 0 0 1-2.871 0z"/><linearGradient id="n" gradientUnits="userSpaceOnUse" x1="518.25" y1="339" x2="513.748" y2="339"><stop offset="0" style="stop-color:#b54400;stop-opacity:0"/><stop offset="1" style="stop-color:#702700;stop-opacity:.15"/></linearGradient><path fill="url(#n)" d="M514 330h4v18h-4z"/><linearGradient id="o" gradientUnits="userSpaceOnUse" x1="474" y1="310.75" x2="474" y2="387.002"><stop offset="0" style="stop-color:#ffb024"/><stop offset=".281" style="stop-color:#fda726"/><stop offset=".739" style="stop-color:#f88f2b"/><stop offset="1" style="stop-color:#f47e2f"/></linearGradient><path fill="url(#o)" d="M434 312h80v74h-80z"/><linearGradient id="p" gradientUnits="userSpaceOnUse" x1="520" y1="460" x2="576" y2="460"><stop offset="0" style="stop-color:#d86e27"/><stop offset="1" style="stop-color:#d8893a"/></linearGradient><path fill="url(#p)" d="M544 452v-8h-24v32h56v-12a8 8 0 0 0-8-8h-20a4 4 0 0 1-4-4z"/><linearGradient id="q" gradientUnits="userSpaceOnUse" x1="518" y1="280.75" x2="518" y2="302.953"><stop offset="0" style="stop-color:#ffd3bb"/><stop offset="1" style="stop-color:#ffc4b0"/></linearGradient><path fill="url(#q)" d="M518 282h-10v10c0 5.523 4.477 10 10 10s10-4.477 10-10-4.477-10-10-10z"/><linearGradient id="r" gradientUnits="userSpaceOnUse" x1="420" y1="286" x2="517.097" y2="286"><stop offset="0" style="stop-color:#ffddca"/><stop offset="1" style="stop-color:#ffd7c7"/></linearGradient><path fill="url(#r)" d="M434 260v22h-4c-5.523 0-10 4.477-10 10s4.477 10 10 10a9.958 9.958 0 0 0 4-.844V312h80v-52h-80z"/><circle fill="#FFF" cx="458" cy="286" r="8"/><linearGradient id="s" gradientUnits="userSpaceOnUse" x1="458" y1="281.75" x2="458" y2="290.065"><stop offset="0" style="stop-color:#4c4b4b"/><stop offset="1" style="stop-color:#3a3838"/></linearGradient><path fill="url(#s)" d="M462 285.82v.18c0 2.2-1.8 4-4 4s-4-1.8-4-4 1.8-4 4-4h.18c-.12 0-.18.64-.18 1 0 1.66 1.34 3 3 3 .36 0 .68-.06 1-.18z"/><linearGradient id="t" gradientUnits="userSpaceOnUse" x1="494" y1="311.333" x2="494" y2="386.773"><stop offset="0" style="stop-color:#b54400;stop-opacity:0"/><stop offset=".368" style="stop-color:#b64000;stop-opacity:.0737"/><stop offset=".75" style="stop-color:#b73300;stop-opacity:.1499"/><stop offset="1" style="stop-color:#b92700;stop-opacity:.2"/></linearGradient><path fill="url(#t)" d="M474 312h40v74h-40z"/><linearGradient id="u" gradientUnits="userSpaceOnUse" x1="518" y1="287.5" x2="518" y2="297.168"><stop offset="0" style="stop-color:#ffc7b8"/><stop offset="1" style="stop-color:#ffb19f"/></linearGradient><path fill="url(#u)" d="M518 288h-4v4a4 4 0 1 0 4-4z"/><linearGradient id="v" gradientUnits="userSpaceOnUse" x1="430" y1="287.833" x2="430" y2="296.673"><stop offset="0" style="stop-color:#ffc7b8"/><stop offset="1" style="stop-color:#ffb19f"/></linearGradient><path fill="url(#v)" d="M430 288h4v4a4 4 0 1 1-4-4z"/><path opacity=".05" d="M522 292c0 .34-.04.68-.14 1-.44-1.72-2-3-3.86-3h-4v-2h4c2.2 0 4 1.8 4 4zm-96 0c0 .34.04.68.14 1 .44-1.72 2-3 3.86-3h4v-2h-4c-2.2 0-4 1.8-4 4z"/><linearGradient id="w" gradientUnits="userSpaceOnUse" x1="474" y1="287.833" x2="474" y2="298.366"><stop offset="0" style="stop-color:#ffc8b0"/><stop offset="1" style="stop-color:#ffc4b0"/></linearGradient><path fill="url(#w)" d="M478 294a4 4 0 0 1-8 0v-2a4 4 0 0 1 8 0v2z"/><linearGradient id="x" gradientUnits="userSpaceOnUse" x1="428" y1="297.5" x2="428" y2="308.324"><stop offset="0" style="stop-color:#ffcc4d"/><stop offset="1" style="stop-color:#ffbb25"/></linearGradient><path fill="url(#x)" d="M430 306a2 2 0 1 1-4 0v-6a2 2 0 1 1 4 0v6z"/><linearGradient id="y" gradientUnits="userSpaceOnUse" x1="474" y1="301.75" x2="474" y2="354.25"><stop offset="0" style="stop-color:#ff8224"/><stop offset="1" style="stop-color:#ff6639"/></linearGradient><path fill="url(#y)" d="M512 302h-8c-5.523 0-10 4.477-10 10 0-5.523-4.477-10-10-10h-20c-5.523 0-10 4.477-10 10 0-5.523-4.477-10-10-10h-8a2 2 0 0 0-2 2v28c0 5.523 4.477 10 10 10s10-4.477 10-10v12c0 5.523 4.477 10 10 10s10-4.477 10-10c0 5.523 4.477 10 10 10s10-4.477 10-10v-12c0 5.523 4.477 10 10 10s10-4.477 10-10v-28a2 2 0 0 0-2-2z"/><path fill="#FFF" d="M486 314a4 4 0 0 1-4 4h-16a4 4 0 0 1 0-8h16a4 4 0 0 1 4 4z"/><linearGradient id="z" gradientUnits="userSpaceOnUse" x1="474" y1="240.444" x2="474" y2="224.581"><stop offset="0" style="stop-color:#4c3e34"/><stop offset="1" style="stop-color:#594b42"/></linearGradient><path fill="url(#z)" d="M510 224h-72a8 8 0 0 0-8 8v8h88v-8a8 8 0 0 0-8-8z"/><linearGradient id="A" gradientUnits="userSpaceOnUse" x1="474" y1="196.5" x2="474" y2="261.008"><stop offset="0" style="stop-color:#895e46"/><stop offset="1" style="stop-color:#705747"/></linearGradient><path fill="url(#A)" d="M518 236h-6c-3.32 0-6-2.68-6-6v-2c0-17.673-14.327-32-32-32s-32 14.327-32 32v2c0 3.32-2.68 6-6 6h-6c-6.627 0-12 5.373-12 12s5.373 12 12 12h88c6.627 0 12-5.373 12-12s-5.373-12-12-12z"/><path fill="#FFF" d="M483.4 234.58c-.58-.6-.74-1.5-.38-2.26 1.3-2.72 1.3-5.92 0-8.64-.36-.76-.2-1.66.38-2.26l.5-.5c.78-.78.78-2.04 0-2.82-.38-.38-.9-.58-1.42-.58-.5 0-1 .2-1.4.58l-.5.5c-.6.58-1.5.74-2.26.38-2.72-1.3-5.92-1.3-8.64 0-.76.36-1.66.2-2.26-.38l-.5-.5c-.78-.78-2.04-.78-2.82 0-.38.38-.58.9-.58 1.42 0 .5.2 1 .58 1.4l.5.5c.58.6.74 1.5.38 2.26-1.3 2.72-1.3 5.92 0 8.64.36.76.2 1.66-.38 2.26l-.5.5c-.78.78-.78 2.04 0 2.82.38.38.9.58 1.42.58.5 0 1-.2 1.4-.58l.5-.5c.6-.58 1.5-.74 2.26-.38 2.72 1.3 5.92 1.3 8.64 0 .76-.36 1.66-.2 2.26.38l.5.5c.78.78 2.04.78 2.82 0 .38-.38.58-.9.58-1.42 0-.5-.2-1-.58-1.4l-.5-.5zM474 234c-3.32 0-6-2.68-6-6s2.68-6 6-6 6 2.68 6 6-2.68 6-6 6z"/><linearGradient id="B" gradientUnits="userSpaceOnUse" x1="485" y1="410" x2="547.394" y2="410"><stop offset="0" style="stop-color:#3a3c3d"/><stop offset=".824" style="stop-color:#484b4f"/><stop offset="1" style="stop-color:#4b4f54"/></linearGradient><path fill="url(#B)" d="M484 386v28h32a2 2 0 0 1 2 2v18h28v-36c0-6.627-5.373-12-12-12h-50z"/><linearGradient id="C" gradientUnits="userSpaceOnUse" x1="434" y1="416" x2="514" y2="416"><stop offset="0" style="stop-color:#3a3c3d"/><stop offset=".155" style="stop-color:#3f4143"/><stop offset=".585" style="stop-color:#484c50"/><stop offset="1" style="stop-color:#4b4f54"/></linearGradient><path fill="url(#C)" d="M462 386h-28v60h28v-28a4 4 0 0 1 4-4h28c11.046 0 20-8.955 20-20v-8h-52z"/><linearGradient id="D" gradientUnits="userSpaceOnUse" x1="514" y1="438" x2="550" y2="438"><stop offset="0" style="stop-color:#3a3c3d"/><stop offset=".155" style="stop-color:#3f4143"/><stop offset=".585" style="stop-color:#484c50"/><stop offset="1" style="stop-color:#4b4f54"/></linearGradient><path fill="url(#D)" d="M550 444a2 2 0 0 1-2 2h-32a2 2 0 0 1-2-2v-12a2 2 0 0 1 2-2h32a2 2 0 0 1 2 2v12z"/><linearGradient id="E" gradientUnits="userSpaceOnUse" x1="448" y1="453.5" x2="448" y2="501.01"><stop offset="0" style="stop-color:#d86e27"/><stop offset="1" style="stop-color:#d8893a"/></linearGradient><path fill="url(#E)" d="m458 452-.86 10-.36 4-2.26 26.02c-.3 3.38-3.12 5.98-6.52 5.98s-6.22-2.6-6.52-5.98L439.22 466l-.36-4-.86-10h20z"/><linearGradient id="F" gradientUnits="userSpaceOnUse" x1="432" y1="453" x2="464" y2="453"><stop offset="0" style="stop-color:#ffcc4d"/><stop offset="1" style="stop-color:#ffb03e"/></linearGradient><path fill="url(#F)" d="M456 462h-16a8 8 0 0 1-8-8v-8a2 2 0 0 1 2-2h28a2 2 0 0 1 2 2v8a8 8 0 0 1-8 8z"/><path fill="#845535" d="M578 474a2 2 0 0 0-2-2h-56a2 2 0 1 0 0 4h56a2 2 0 0 0 2-2z"/><linearGradient id="G" gradientUnits="userSpaceOnUse" x1="552" y1="453.875" x2="552" y2="462.501"><stop offset="0" style="stop-color:#4c3e34"/><stop offset="1" style="stop-color:#594b42"/></linearGradient><path fill="url(#G)" d="M554 460a2 2 0 1 1-4 0v-4a2 2 0 1 1 4 0v4z"/><linearGradient id="H" gradientUnits="userSpaceOnUse" x1="560" y1="453.875" x2="560" y2="462.501"><stop offset="0" style="stop-color:#4c3e34"/><stop offset="1" style="stop-color:#594b42"/></linearGradient><path fill="url(#H)" d="M562 460a2 2 0 1 1-4 0v-4a2 2 0 1 1 4 0v4z"/><linearGradient id="I" gradientUnits="userSpaceOnUse" x1="524" y1="472.094" x2="524" y2="463.997"><stop offset="0" style="stop-color:#000;stop-opacity:.1"/><stop offset="1" style="stop-color:#302926;stop-opacity:0"/></linearGradient><path fill="url(#I)" d="M528 472h-8v-8h4a4 4 0 0 1 4 4v4z"/><linearGradient id="J" gradientUnits="userSpaceOnUse" x1="508" y1="487" x2="588" y2="487"><stop offset="0" style="stop-color:#e5e5e5"/><stop offset="1" style="stop-color:#cecece"/></linearGradient><path fill="url(#J)" d="M578 476h-60c-5.523 0-10 4.477-10 10v8a4 4 0 0 0 4 4h72a4 4 0 0 0 4-4v-8c0-5.523-4.477-10-10-10z"/><path fill="#FF9022" d="M434 402h-18a2 2 0 0 1-2-2v-2a2 2 0 0 1 2-2h18v6z"/><linearGradient id="K" gradientUnits="userSpaceOnUse" x1="436" y1="407.75" x2="436" y2="435.138"><stop offset="0" style="stop-color:#e5e5e5"/><stop offset=".499" style="stop-color:#dcdcdc"/><stop offset="1" style="stop-color:#cecece"/></linearGradient><path fill="url(#K)" d="M436 435c-8.822 0-16-7.178-16-16v-7a4 4 0 0 1 8 0v7c0 4.412 3.588 8 8 8s8-3.588 8-8a4 4 0 0 1 8 0c0 8.822-7.178 16-16 16z"/><linearGradient id="L" gradientUnits="userSpaceOnUse" x1="416" y1="407.5" x2="434" y2="407.5"><stop offset="0" style="stop-color:#ffcc4d"/><stop offset="1" style="stop-color:#ffb03e"/></linearGradient><path fill="url(#L)" d="M416 404c0 4.971 4.029 9 9 9s9-4.029 9-9v-2h-18v2z"/><linearGradient id="M" gradientUnits="userSpaceOnUse" x1="434" y1="384" x2="514" y2="384"><stop offset="0" style="stop-color:#965b32"/><stop offset="1" style="stop-color:#89512b"/></linearGradient><path fill="url(#M)" d="M434 382h80v4h-80z"/><linearGradient id="N" gradientUnits="userSpaceOnUse" x1="474" y1="378.333" x2="474" y2="389.338"><stop offset="0" style="stop-color:#e5e5e5"/><stop offset=".499" style="stop-color:#dcdcdc"/><stop offset="1" style="stop-color:#cecece"/></linearGradient><path fill="url(#N)" d="M482 388a2 2 0 0 1-2 2h-12a2 2 0 0 1-2-2v-8a2 2 0 0 1 2-2h12a2 2 0 0 1 2 2v8z"/><linearGradient id="O" gradientUnits="userSpaceOnUse" x1="513" y1="259.5" x2="513" y2="282.755"><stop offset="0" style="stop-color:#ff8224"/><stop offset="1" style="stop-color:#ff6639"/></linearGradient><path fill="url(#O)" d="M517 270a5 5 0 1 0 0-10h-13v2a8 8 0 0 0 8 8h2v12h3a5 5 0 0 0 5-5v-2a5 5 0 0 0-5-5z"/><linearGradient id="P" gradientUnits="userSpaceOnUse" x1="435" y1="259.5" x2="435" y2="282.755"><stop offset="0" style="stop-color:#ff8224"/><stop offset="1" style="stop-color:#ff6639"/></linearGradient><path fill="url(#P)" d="M431 260a5 5 0 1 0 0 10 5 5 0 0 0-5 5v2a5 5 0 0 0 5 5h3v-12h2a8 8 0 0 0 8-8v-2h-13z"/><linearGradient id="Q" gradientUnits="userSpaceOnUse" x1="590" y1="318.125" x2="590" y2="324.5"><stop offset="0" style="stop-color:#ffddca"/><stop offset="1" style="stop-color:#ffd3c0"/></linearGradient><path fill="url(#Q)" d="M596 321a3 3 0 0 1-3 3h-6a3 3 0 1 1 0-6h6a3 3 0 0 1 3 3z"/><linearGradient id="R" gradientUnits="userSpaceOnUse" x1="590" y1="324.042" x2="590" y2="318.027"><stop offset="0" style="stop-color:#610000;stop-opacity:.05"/><stop offset=".145" style="stop-color:#640807;stop-opacity:.0428"/><stop offset=".674" style="stop-color:#6c201e;stop-opacity:.0163"/><stop offset="1" style="stop-color:#6f2926;stop-opacity:0"/></linearGradient><path fill="url(#R)" d="M596 321a3 3 0 0 1-3 3h-6a3 3 0 1 1 0-6h6a3 3 0 0 1 3 3z"/><linearGradient id="S" gradientUnits="userSpaceOnUse" x1="579" y1="498" x2="579" y2="474.913"><stop offset="0" style="stop-color:#000;stop-opacity:.07"/><stop offset=".123" style="stop-color:#0b0909;stop-opacity:.0614"/><stop offset=".421" style="stop-color:#1f1b19;stop-opacity:.0405"/><stop offset=".716" style="stop-color:#2c2523;stop-opacity:.0199"/><stop offset="1" style="stop-color:#302926;stop-opacity:0"/></linearGradient><path fill="url(#S)" d="M588 486v8c0 2.2-1.8 4-4 4h-8c2.2 0 4-1.8 4-4v-8c0-5.52-4.48-10-10-10h8c5.52 0 10 4.48 10 10z"/><linearGradient id="T" gradientUnits="userSpaceOnUse" x1="462" y1="365" x2="486" y2="365"><stop offset="0" style="stop-color:#ffcc4d"/><stop offset="1" style="stop-color:#ffbb25"/></linearGradient><path fill="url(#T)" d="M462 364h24v2h-24z"/><linearGradient id="U" gradientUnits="userSpaceOnUse" x1="461" y1="361.133" x2="461" y2="369.004"><stop offset="0" style="stop-color:#ffcc4d"/><stop offset="1" style="stop-color:#ffbb25"/></linearGradient><circle fill="url(#U)" cx="461" cy="365" r="4"/><linearGradient id="V" gradientUnits="userSpaceOnUse" x1="487" y1="361.133" x2="487" y2="369.004"><stop offset="0" style="stop-color:#ffcc4d"/><stop offset="1" style="stop-color:#ffbb25"/></linearGradient><circle fill="url(#V)" cx="487" cy="365" r="4"/><linearGradient id="W" gradientUnits="userSpaceOnUse" x1="494" y1="287" x2="514" y2="287"><stop offset="0" style="stop-color:#3a3c3d"/><stop offset=".155" style="stop-color:#3f4143"/><stop offset=".585" style="stop-color:#484c50"/><stop offset="1" style="stop-color:#4b4f54"/></linearGradient><path fill="url(#W)" d="M494 286h20v2h-20z"/><linearGradient id="X" gradientUnits="userSpaceOnUse" x1="488" y1="271" x2="490" y2="271"><stop offset="0" style="stop-color:#3a3c3d"/><stop offset=".155" style="stop-color:#3f4143"/><stop offset=".585" style="stop-color:#484c50"/><stop offset="1" style="stop-color:#4b4f54"/></linearGradient><path fill="url(#X)" d="M488 260h2v22h-2z"/><linearGradient id="Y" gradientUnits="userSpaceOnUse" x1="490" y1="294.166" x2="490" y2="277.536"><stop offset="0" style="stop-color:#3a3c3d"/><stop offset=".155" style="stop-color:#3f4143"/><stop offset=".585" style="stop-color:#484c50"/><stop offset="1" style="stop-color:#4b4f54"/></linearGradient><circle fill="url(#Y)" cx="490" cy="286" r="8"/><linearGradient id="Z" gradientUnits="userSpaceOnUse" x1="458" y1="266" x2="458" y2="276.547"><stop offset="0" style="stop-color:#ff8224"/><stop offset="1" style="stop-color:#ff6639"/></linearGradient><path fill="url(#Z)" d="m463.019 275.45-11.591-3.106a2 2 0 0 1-1.414-2.449l.518-1.932a2 2 0 0 1 2.449-1.414l11.591 3.106a2 2 0 0 1 1.414 2.449l-.518 1.932a1.999 1.999 0 0 1-2.449 1.414z"/><linearGradient id="aa" gradientUnits="userSpaceOnUse" x1="490" y1="266.007" x2="490" y2="276.555"><stop offset="0" style="stop-color:#ff8224"/><stop offset="1" style="stop-color:#ff6639"/></linearGradient><path fill="url(#aa)" d="m496.664 271.767-11.276 4.104a1.999 1.999 0 0 1-2.563-1.195l-.684-1.879a1.999 1.999 0 0 1 1.195-2.563l11.276-4.104a1.999 1.999 0 0 1 2.563 1.195l.684 1.879a2 2 0 0 1-1.195 2.563z"/><linearGradient id="ab" gradientUnits="userSpaceOnUse" x1="444" y1="327.625" x2="444" y2="342.651"><stop offset="0" style="stop-color:#b54400;stop-opacity:0"/><stop offset=".42" style="stop-color:#b63b00;stop-opacity:.1261"/><stop offset="1" style="stop-color:#b92700;stop-opacity:.3"/></linearGradient><path fill="url(#ab)" d="M454 328v4c0 5.52-4.48 10-10 10s-10-4.48-10-10v-4c0 5.52 4.48 10 10 10s10-4.48 10-10z"/><linearGradient id="ac" gradientUnits="userSpaceOnUse" x1="504" y1="327.625" x2="504" y2="342.651"><stop offset="0" style="stop-color:#b54400;stop-opacity:0"/><stop offset=".42" style="stop-color:#b63b00;stop-opacity:.1261"/><stop offset="1" style="stop-color:#b92700;stop-opacity:.3"/></linearGradient><path fill="url(#ac)" d="M514 328v4c0 5.52-4.48 10-10 10s-10-4.48-10-10v-4c0 5.52 4.48 10 10 10s10-4.48 10-10z"/><linearGradient id="ad" gradientUnits="userSpaceOnUse" x1="484" y1="340.666" x2="484" y2="354.682"><stop offset="0" style="stop-color:#b54400;stop-opacity:0"/><stop offset=".42" style="stop-color:#b63b00;stop-opacity:.1261"/><stop offset="1" style="stop-color:#b92700;stop-opacity:.3"/></linearGradient><path fill="url(#ad)" d="M494 340v4c0 5.52-4.48 10-10 10s-10-4.48-10-10v-4c0 5.52 4.48 10 10 10s10-4.48 10-10z"/><linearGradient id="ae" gradientUnits="userSpaceOnUse" x1="464" y1="340.666" x2="464" y2="354.682"><stop offset="0" style="stop-color:#b54400;stop-opacity:0"/><stop offset=".42" style="stop-color:#b63b00;stop-opacity:.1261"/><stop offset="1" style="stop-color:#b92700;stop-opacity:.3"/></linearGradient><path fill="url(#ae)" d="M474 340v4c0 5.52-4.48 10-10 10s-10-4.48-10-10v-4c0 5.52 4.48 10 10 10s10-4.48 10-10z"/><linearGradient id="af" gradientUnits="userSpaceOnUse" x1="425" y1="347.824" x2="425" y2="397.079"><stop offset="0" style="stop-color:#b54400;stop-opacity:0"/><stop offset=".368" style="stop-color:#b64000;stop-opacity:.0737"/><stop offset=".75" style="stop-color:#b73300;stop-opacity:.1499"/><stop offset="1" style="stop-color:#b92700;stop-opacity:.2"/></linearGradient><path fill="url(#af)" d="M416 348h18v48h-18z"/><linearGradient id="ag" gradientUnits="userSpaceOnUse" x1="532" y1="425.917" x2="532" y2="430.25"><stop offset="0" style="stop-color:#302926;stop-opacity:0"/><stop offset="1" style="stop-color:#000;stop-opacity:.15"/></linearGradient><path fill="url(#ag)" d="M518 426h28v4h-28z"/><linearGradient id="ah" gradientUnits="userSpaceOnUse" x1="448" y1="439.917" x2="448" y2="444.25"><stop offset="0" style="stop-color:#302926;stop-opacity:0"/><stop offset="1" style="stop-color:#000;stop-opacity:.15"/></linearGradient><path fill="url(#ah)" d="M434 440h28v4h-28z"/><linearGradient id="ai" gradientUnits="userSpaceOnUse" x1="448" y1="466.25" x2="448" y2="461.598"><stop offset="0" style="stop-color:#b54400;stop-opacity:0"/><stop offset=".236" style="stop-color:#b14200;stop-opacity:.0472"/><stop offset=".48" style="stop-color:#a43d00;stop-opacity:.0961"/><stop offset=".729" style="stop-color:#903400;stop-opacity:.1458"/><stop offset=".979" style="stop-color:#732800;stop-opacity:.1957"/><stop offset="1" style="stop-color:#702700;stop-opacity:.2"/></linearGradient><path fill="url(#ai)" d="m457.14 462-.36 4h-17.56l-.36-4z"/><linearGradient id="aj" gradientUnits="userSpaceOnUse" x1="532" y1="450.25" x2="532" y2="445.598"><stop offset="0" style="stop-color:#b54400;stop-opacity:0"/><stop offset=".236" style="stop-color:#b14200;stop-opacity:.0472"/><stop offset=".48" style="stop-color:#a43d00;stop-opacity:.0961"/><stop offset=".729" style="stop-color:#903400;stop-opacity:.1458"/><stop offset=".979" style="stop-color:#732800;stop-opacity:.1957"/><stop offset="1" style="stop-color:#702700;stop-opacity:.2"/></linearGradient><path fill="url(#aj)" d="M520 446h24v4h-24z"/><linearGradient id="ak" gradientUnits="userSpaceOnUse" x1="424" y1="412.312" x2="424" y2="415.946"><stop offset="0" style="stop-color:#000;stop-opacity:.07"/><stop offset="1" style="stop-color:#302926;stop-opacity:0"/></linearGradient><path fill="url(#ak)" d="M428 412.48v3c-.94.34-1.94.52-3 .52a8.99 8.99 0 0 1-5-1.52V412c0-.18.02-.34.04-.5 1.42.96 3.14 1.5 4.96 1.5 1.06 0 2.06-.18 3-.52z"/><linearGradient id="al" gradientUnits="userSpaceOnUse" x1="280" y1="169.667" x2="280" y2="210.672"><stop offset="0" style="stop-color:#00c9ff"/><stop offset="1" style="stop-color:#2c6dff"/></linearGradient><path fill="url(#al)" d="M392 186v24H168v-24c0-8.84 7.16-16 16-16h192c8.84 0 16 7.16 16 16z"/><linearGradient id="am" gradientUnits="userSpaceOnUse" x1="280" y1="210" x2="280" y2="496.851"><stop offset="0" style="stop-color:#e5e5e5"/><stop offset=".499" style="stop-color:#dcdcdc"/><stop offset="1" style="stop-color:#cecece"/></linearGradient><path fill="url(#am)" d="M392 210v272c0 8.84-7.16 16-16 16H184c-8.84 0-16-7.16-16-16V210h224z"/><path fill="#FFF" d="M380 314a4 4 0 0 1-4 4H184a4 4 0 0 1-4-4v-88a4 4 0 0 1 4-4h192a4 4 0 0 1 4 4v88z"/><linearGradient id="an" gradientUnits="userSpaceOnUse" x1="280" y1="233.368" x2="280" y2="308.958"><stop offset="0" style="stop-color:#ebebeb"/><stop offset=".552" style="stop-color:#f4f4f4"/><stop offset="1" style="stop-color:#fff"/></linearGradient><path fill="url(#an)" d="M368 304a2 2 0 0 1-2 2H194a2 2 0 0 1-2-2v-68a2 2 0 0 1 2-2h172a2 2 0 0 1 2 2v68z"/><path fill="#FFF" d="M382 482a4 4 0 0 1-4 4H184a4 4 0 0 1-4-4V334a4 4 0 0 1 4-4h194a4 4 0 0 1 4 4v148z"/><circle fill="#FFF" cx="186" cy="190" r="6"/><circle fill="#FFF" cx="210" cy="190" r="6"/><circle fill="#FFF" cx="234" cy="190" r="6"/><linearGradient id="ao" gradientUnits="userSpaceOnUse" x1="280" y1="340.842" x2="280" y2="479.422"><stop offset="0" style="stop-color:#ebebeb"/><stop offset="1" style="stop-color:#fff"/></linearGradient><path fill="url(#ao)" d="M368 472a2 2 0 0 1-2 2H194a2 2 0 0 1-2-2V344a2 2 0 0 1 2-2h172a2 2 0 0 1 2 2v128z"/><path fill="#D6D6D6" d="M218 452h-4v-8a2 2 0 0 0-2-2h-4v-4h4a6 6 0 0 1 6 6v8z"/><linearGradient id="ap" gradientUnits="userSpaceOnUse" x1="216" y1="447.5" x2="216" y2="454.167"><stop offset="0" style="stop-color:#3a3c3d"/><stop offset="1" style="stop-color:#4b4f54"/></linearGradient><path fill="url(#ap)" d="M218 448h-4a2 2 0 0 0-2 2v4h8v-4a2 2 0 0 0-2-2z"/><linearGradient id="aq" gradientUnits="userSpaceOnUse" x1="236.5" y1="453.5" x2="193.974" y2="496.026"><stop offset="0" style="stop-color:#3a3c3d"/><stop offset=".501" style="stop-color:#44484b"/><stop offset="1" style="stop-color:#4b4f54"/></linearGradient><path fill="url(#aq)" d="M240 474c0 13.255-10.745 24-24 24s-24-10.745-24-24 10.745-24 24-24 24 10.745 24 24z"/><linearGradient id="ar" gradientUnits="userSpaceOnUse" x1="205.515" y1="466.833" x2="205.515" y2="454.514"><stop offset="0" style="stop-color:#ffffed;stop-opacity:0"/><stop offset="1" style="stop-color:#fff;stop-opacity:.2"/></linearGradient><path fill="url(#ar)" d="M201.029 466a2.001 2.001 0 0 1-1.66-3.113 20.164 20.164 0 0 1 9.964-7.748 2.007 2.007 0 0 1 2.552 1.221 2.002 2.002 0 0 1-1.22 2.553 16.117 16.117 0 0 0-7.972 6.201 1.999 1.999 0 0 1-1.664.886z"/><linearGradient id="as" gradientUnits="userSpaceOnUse" x1="216" y1="470" x2="216" y2="498.707"><stop offset="0" style="stop-color:#000;stop-opacity:0"/><stop offset=".863" style="stop-color:#000;stop-opacity:.1725"/><stop offset="1" style="stop-color:#000;stop-opacity:.2"/></linearGradient><path fill="url(#as)" d="M240 474c0 6.64-2.68 12.64-7.02 16.98S222.64 498 216 498c-13.26 0-24-10.74-24-24 0-1.02.06-2.02.2-3 1.46 11.84 11.56 21 23.8 21 6.64 0 12.64-2.68 16.98-7.02 3.68-3.68 6.16-8.54 6.82-13.98.14.98.2 1.98.2 3z"/><linearGradient id="at" gradientUnits="userSpaceOnUse" x1="274" y1="168" x2="294" y2="168"><stop offset="0" style="stop-color:#3ea3ff"/><stop offset=".249" style="stop-color:#3aa1fd"/><stop offset=".508" style="stop-color:#2d9bf7"/><stop offset=".769" style="stop-color:#1992ec"/><stop offset="1" style="stop-color:#0086e0"/></linearGradient><path fill="url(#at)" d="M290 166h-12c-2.209 0-4 2-4 4h20c0-2-1.791-4-4-4z"/><linearGradient id="au" gradientUnits="userSpaceOnUse" x1="284" y1="99.079" x2="284" y2="168.701"><stop offset="0" style="stop-color:#e5e5e5"/><stop offset=".499" style="stop-color:#dcdcdc"/><stop offset="1" style="stop-color:#cecece"/></linearGradient><path fill="url(#au)" d="M282 98h4v68h-4z"/><linearGradient id="av" gradientUnits="userSpaceOnUse" x1="214" y1="120" x2="286" y2="120"><stop offset="0" style="stop-color:#c8c8c8"/><stop offset="1" style="stop-color:#919191"/></linearGradient><path fill="url(#av)" d="M218 146h68V98a4 4 0 0 0-4-4h-64a4 4 0 0 0-4 4v44a4 4 0 0 0 4 4z"/><linearGradient id="aw" gradientUnits="userSpaceOnUse" x1="356" y1="383.385" x2="356" y2="408.771"><stop offset="0" style="stop-color:#e5e5e5"/><stop offset=".499" style="stop-color:#dcdcdc"/><stop offset="1" style="stop-color:#cecece"/></linearGradient><path fill="url(#aw)" d="M354 384h4v24h-4z"/><linearGradient id="ax" gradientUnits="userSpaceOnUse" x1="268" y1="446" x2="396" y2="446"><stop offset="0" style="stop-color:#965b32"/><stop offset="1" style="stop-color:#89512b"/></linearGradient><path fill="url(#ax)" d="m388 486-12.353-56.822C371.184 408.645 353.012 394 332 394s-39.184 14.645-43.647 35.178L276 486a8 8 0 0 0-8 8v4h128v-4a8 8 0 0 0-8-8z"/><linearGradient id="ay" gradientUnits="userSpaceOnUse" x1="239.222" y1="377.434" x2="359.222" y2="456.101"><stop offset="0" style="stop-color:#73767a"/><stop offset="1" style="stop-color:#616468"/></linearGradient><path fill="url(#ay)" d="m228.189 416.496 69.418 61.045c13.21 11.617 33.747 8.241 42.543-6.994l31.65-54.82c3.796-6.575.615-14.978-6.584-17.39l-106.027-35.534-31 53.693z"/><linearGradient id="az" gradientUnits="userSpaceOnUse" x1="232.552" y1="414.983" x2="300.885" y2="476.65"><stop offset="0" style="stop-color:#302926;stop-opacity:0"/><stop offset="1" style="stop-color:#000;stop-opacity:.2"/></linearGradient><path fill="url(#az)" d="m304 474-2.54 6.38c-1.34-.82-2.64-1.76-3.86-2.84l-69.42-61.04.02-.04c0 .02.02.02.02.02 1.42.82 3.66-.06 6.38-2.24L304 474z"/><linearGradient id="aA" gradientUnits="userSpaceOnUse" x1="406.875" y1="409.873" x2="302.1" y2="514.648"><stop offset="0" style="stop-color:#d86e27"/><stop offset="1" style="stop-color:#d8893a"/></linearGradient><path fill="url(#aA)" d="M408 486v12H296v-12l.88-4 11.48-52.82C312.82 408.64 330.98 394 352 394s39.18 14.64 43.64 35.18L407.12 482l.88 4z"/><circle opacity=".08" cx="356" cy="434" r="24"/><linearGradient id="aB" gradientUnits="userSpaceOnUse" x1="288" y1="492" x2="416.678" y2="492"><stop offset="0" style="stop-color:#b76d3b"/><stop offset="1" style="stop-color:#b75d21"/></linearGradient><path fill="url(#aB)" d="M416 498H288v-4a8 8 0 0 1 8-8h112a8 8 0 0 1 8 8v4z"/><linearGradient id="aC" gradientUnits="userSpaceOnUse" x1="332" y1="432" x2="380" y2="432"><stop offset="0" style="stop-color:#ffb024"/><stop offset=".281" style="stop-color:#fda726"/><stop offset=".739" style="stop-color:#f88f2b"/><stop offset="1" style="stop-color:#f47e2f"/></linearGradient><circle fill="url(#aC)" cx="356" cy="432" r="24"/><circle opacity=".08" cx="356" cy="434" r="16"/><linearGradient id="aD" gradientUnits="userSpaceOnUse" x1="340" y1="432" x2="372" y2="432"><stop offset="0" style="stop-color:#ffcc4d"/><stop offset="1" style="stop-color:#ffb03e"/></linearGradient><circle fill="url(#aD)" cx="356" cy="432" r="16"/><linearGradient id="aE" gradientUnits="userSpaceOnUse" x1="356" y1="440.166" x2="356" y2="423.913"><stop offset="0" style="stop-color:#b54400;stop-opacity:0"/><stop offset=".42" style="stop-color:#b63b00;stop-opacity:.0841"/><stop offset="1" style="stop-color:#b92700;stop-opacity:.2"/></linearGradient><circle fill="url(#aE)" cx="356" cy="432" r="8"/><linearGradient id="aF" gradientUnits="userSpaceOnUse" x1="346" y1="373.335" x2="366" y2="373.335"><stop offset="0" style="stop-color:#ffe552"/><stop offset="1" style="stop-color:#ff9617"/></linearGradient><path fill="url(#aF)" d="M366 376c0 5.522-4.475 9.998-9.996 10-2.085.001-4.077-.86-5.727-2.136-10.13-7.836.394-19.02 4.35-22.665.757-.697 1.977-.706 2.734-.009 2.737 2.518 8.639 8.664 8.639 14.81z"/><linearGradient id="aG" gradientUnits="userSpaceOnUse" x1="345.875" y1="380.01" x2="366.047" y2="380.01"><stop offset="0" style="stop-color:#ff3b2a;stop-opacity:0"/><stop offset="1" style="stop-color:#d43200;stop-opacity:.2"/></linearGradient><path fill="url(#aG)" d="M366 376c0 5.52-4.48 10-10 10s-10-4.48-10-10c0-.66.06-1.32.2-1.98.94 4.54 4.96 7.98 9.8 7.98s8.86-3.44 9.8-7.98c.14.66.2 1.32.2 1.98z"/><linearGradient id="aH" gradientUnits="userSpaceOnUse" x1="250.746" y1="393.372" x2="236.371" y2="385.747"><stop offset="0" style="stop-color:#3a3c3d"/><stop offset=".501" style="stop-color:#44484b"/><stop offset="1" style="stop-color:#4b4f54"/></linearGradient><path fill="url(#aH)" d="M250.64 393.641c-8.56 14.827-18.602 25.056-22.428 22.847-3.826-2.209.011-16.02 8.572-30.847 8.56-14.827 18.602-25.056 22.428-22.847 3.826 2.209-.012 16.02-8.572 30.847z"/><linearGradient id="aI" gradientUnits="userSpaceOnUse" x1="352" y1="482" x2="352" y2="486.031"><stop offset="0" style="stop-color:#b54400;stop-opacity:0"/><stop offset="1" style="stop-color:#702700;stop-opacity:.15"/></linearGradient><path fill="url(#aI)" d="M408 486H296l.88-4h110.24z"/><path fill="#AFAFAF" d="M334 257a3 3 0 0 1-3 3h-64a3 3 0 1 1 0-6h64a3 3 0 0 1 3 3zm-10 14a3 3 0 0 1-3 3h-54a3 3 0 1 1 0-6h54a3 3 0 0 1 3 3zm-10 14a3 3 0 0 1-3 3h-44a3 3 0 1 1 0-6h44a3 3 0 0 1 3 3z"/><path fill="#E8E8E8" d="m415.191 166.427 1.215 3.921c.184.595.65 1.061 1.245 1.245l3.921 1.215c.35.108.35.604 0 .713l-3.921 1.215a1.887 1.887 0 0 0-1.245 1.245l-1.215 3.921c-.108.35-.604.35-.713 0l-1.215-3.921a1.887 1.887 0 0 0-1.245-1.245l-3.921-1.215c-.35-.108-.35-.604 0-.713l3.921-1.215a1.887 1.887 0 0 0 1.245-1.245l1.215-3.921c.109-.351.605-.351.713 0z"/><linearGradient id="aJ" gradientUnits="userSpaceOnUse" x1="228" y1="244.666" x2="228" y2="294.423"><stop offset="0" style="stop-color:#e4e4e4"/><stop offset=".375" style="stop-color:#e0e0e0"/><stop offset=".763" style="stop-color:#d3d3d3"/><stop offset="1" style="stop-color:#c8c8c8"/></linearGradient><circle fill="url(#aJ)" cx="228" cy="270" r="24"/><path fill="#FFF" d="M227.56 254c-7.66.24-13.56 6.92-13.56 14.58V275c0 1.66 1.34 3 3 3h3c1.1 0 2 .9 2 2v2c0 1.1.9 2 2 2h8c1.1 0 2-.9 2-2v-2c0-1.1.9-2 2-2h3c1.66 0 3-1.34 3-3v-7c0-7.88-6.5-14.24-14.44-14zM222 273c-1.66 0-3-1.34-3-3s1.34-3 3-3 3 1.34 3 3-1.34 3-3 3zm7 3h-2c-.56 0-1-.44-1-1s.44-1 1-1h2c.56 0 1 .44 1 1s-.44 1-1 1zm5-3c-1.66 0-3-1.34-3-3s1.34-3 3-3 3 1.34 3 3-1.34 3-3 3z"/><circle fill="#AFAFAF" cx="234" cy="270" r="3"/><circle fill="#AFAFAF" cx="222" cy="270" r="3"/><path fill="#AFAFAF" d="M230 275a1 1 0 0 1-1 1h-2a1 1 0 0 1 0-2h2a1 1 0 0 1 1 1z"/><linearGradient id="aK" gradientUnits="userSpaceOnUse" x1="284" y1="150.094" x2="284" y2="145.996"><stop offset="0" style="stop-color:#302926;stop-opacity:0"/><stop offset="1" style="stop-color:#000;stop-opacity:.1"/></linearGradient><path fill="url(#aK)" d="M282 146h4v4h-4z"/><path fill="#FFF" d="M257.192 126.364 250.828 120l6.364-6.364a3 3 0 1 0 4.243-4.243 2.98 2.98 0 0 0-1.965-.864 2.976 2.976 0 0 0-.864-1.965 3 3 0 0 0-4.243 0c-1.172 1.171-1.414 2.828 0 4.243L248 117.172l-6.364-6.364a3 3 0 1 0-4.243-4.243 2.98 2.98 0 0 0-.864 1.965 2.978 2.978 0 0 0-1.965.864c-1.172 1.171-1.172 3.071 0 4.242s2.828 1.414 4.243 0l6.364 6.364-6.364 6.364c-1.414-1.414-3.071-1.171-4.243 0a3 3 0 0 0 0 4.243 2.98 2.98 0 0 0 1.965.864c.037.714.318 1.419.864 1.965a3.001 3.001 0 0 0 4.243-4.243l6.364-6.364 6.364 6.364c-1.414 1.414-1.171 3.071 0 4.243a3.001 3.001 0 0 0 4.243 0 2.983 2.983 0 0 0 .864-1.965 2.978 2.978 0 0 0 1.965-.864 3 3 0 0 0 0-4.243c-1.173-1.172-2.829-1.414-4.244 0z"/></svg>